<?xml version="1.0" encoding="UTF-8" standalone="no"?><!DOCTYPE svg PUBLIC "-//W3C//DTD SVG 1.1//EN" "http://www.w3.org/Graphics/SVG/1.1/DTD/svg11.dtd"><svg width="100%" height="100%" viewBox="0 0 44 44" version="1.1" xmlns="http://www.w3.org/2000/svg" xmlns:xlink="http://www.w3.org/1999/xlink" xml:space="preserve" xmlns:serif="http://www.serif.com/" style="fill-rule:evenodd;clip-rule:evenodd;stroke-linejoin:round;stroke-miterlimit:2;"><circle cx="21.875" cy="21.875" r="21.875" style="fill:#fff;"/><path d="M39.041,12.755l-9.267,22.726c-0.529,1.299 -1.799,2.153 -3.202,2.152l-9.367,0c-1.401,0 -2.669,-0.852 -3.198,-2.148l-9.296,-22.729c-0.014,-0.034 -0.021,-0.07 -0.021,-0.107c0,-0.154 0.126,-0.28 0.28,-0.28c0.001,0 0.001,0 0.002,0l9.38,0c0.234,0 0.443,0.144 0.526,0.364l7.026,18.733l6.967,-18.733c0.083,-0.218 0.293,-0.363 0.526,-0.364l9.384,-0c0.199,0 0.333,0.203 0.258,0.387" style="fill:#323232;fill-rule:nonzero;"/></svg>